<?xml version="1.0" standalone="no"?>
<!DOCTYPE svg PUBLIC "-//W3C//DTD SVG 20010904//EN"
 "http://www.w3.org/TR/2001/REC-SVG-20010904/DTD/svg10.dtd">
<svg version="1.0" xmlns="http://www.w3.org/2000/svg"
 width="500.000000pt" height="500.000000pt" viewBox="0 0 500.000000 500.000000"
 preserveAspectRatio="xMidYMid meet">

<g transform="translate(0.000000,500.000000) scale(0.100000,-0.100000)"
fill="#fffbf8" stroke="none">
<path d="M2364 3928 c3 -13 6 -42 6 -66 0 -30 4 -42 12 -40 8 3 11 20 9 46 -1
23 2 42 6 42 17 0 53 -46 53 -68 0 -13 6 -22 15 -22 17 0 18 15 9 84 -7 45
-24 65 -24 26 0 -11 -4 -20 -8 -20 -5 0 -17 9 -27 20 -10 11 -27 20 -38 20
-15 0 -18 -5 -13 -22z"/>
<path d="M2570 3916 c0 -18 -3 -48 -6 -65 -5 -24 -3 -31 10 -31 12 0 16 10 16
39 0 22 4 42 8 45 15 9 54 -53 47 -74 -4 -14 -2 -20 9 -20 9 0 16 8 16 19 0
10 3 39 6 65 6 38 4 46 -10 46 -10 0 -16 -8 -16 -22 0 -21 -1 -21 -28 5 -38
36 -52 34 -52 -7z"/>
<path d="M2198 3918 c-21 -17 -31 -79 -18 -113 10 -26 25 -27 25 -2 0 16 46
22 55 7 4 -7 12 -10 18 -6 14 8 0 57 -28 96 -24 34 -29 35 -52 18z m31 -70
c-28 -11 -33 -5 -24 29 l7 28 20 -25 19 -24 -22 -8z"/>
<path d="M2780 3910 c0 -5 7 -13 16 -18 12 -7 14 -17 9 -45 -6 -30 -12 -37
-31 -37 -40 0 -27 -17 22 -29 50 -13 69 -7 42 13 -24 18 -6 86 22 86 36 0 21
17 -24 29 -54 13 -56 13 -56 1z"/>
<path d="M2002 3865 c-21 -10 -32 -21 -32 -35 0 -30 27 -89 44 -96 19 -7 76
23 76 41 0 19 -10 19 -34 0 -30 -23 -42 -18 -53 20 -10 31 -9 36 9 46 11 6 26
8 33 5 22 -8 28 12 8 23 -13 6 -29 5 -51 -4z"/>
<path d="M2985 3850 c-4 -7 6 -16 24 -23 42 -15 39 -25 -9 -33 -26 -4 -45 -14
-51 -26 -13 -24 -6 -32 44 -53 31 -13 37 -13 37 -1 0 7 -14 19 -31 26 -33 14
-24 30 19 30 21 0 62 31 62 48 0 4 -17 14 -37 22 -21 8 -41 16 -45 18 -3 2 -9
-2 -13 -8z"/>
<path d="M3170 3760 c0 -5 11 -17 25 -26 37 -24 31 -34 -20 -34 -34 0 -47 -5
-55 -20 -9 -17 -5 -23 30 -46 47 -31 69 -23 28 10 -16 12 -28 25 -28 29 0 4
20 7 45 7 35 0 47 4 55 21 7 11 10 22 8 23 -16 12 -77 46 -82 46 -3 0 -6 -4
-6 -10z"/>
<path d="M1670 3684 c0 -3 5 -14 10 -25 10 -18 8 -19 -28 -13 -56 9 -60 -8
-16 -64 21 -26 39 -49 40 -51 2 -1 8 0 14 4 7 4 -1 21 -21 46 l-31 39 33 0
c19 0 42 -8 55 -21 37 -35 36 -4 -2 45 -31 40 -54 58 -54 40z"/>
<path d="M3340 3620 c-44 -23 -74 -55 -65 -70 6 -9 10 -9 16 1 6 10 12 9 29
-6 11 -10 18 -25 16 -32 -10 -24 13 -23 33 3 27 35 38 92 20 109 -12 11 -20
11 -49 -5z m33 -37 c-11 -31 -14 -33 -34 -22 -16 8 -18 13 -8 25 17 21 50 18
42 -3z"/>
<path d="M1482 3523 c-11 -18 9 -76 36 -105 20 -23 46 -24 38 -2 -8 21 21 55
40 47 20 -7 17 11 -4 30 -15 14 -83 47 -96 47 -3 0 -9 -7 -14 -17z m54 -23
c26 -10 26 -11 8 -31 l-18 -20 -13 23 c-22 40 -19 44 23 28z"/>
<path d="M3450 3470 c-43 -38 -49 -67 -8 -41 27 17 44 1 29 -27 -14 -26 -14
-42 0 -42 6 0 13 9 16 20 3 12 14 20 27 20 25 0 46 17 46 37 0 19 -41 73 -54
73 -6 -1 -31 -18 -56 -40z m80 -26 c0 -8 -6 -14 -14 -14 -16 0 -29 27 -20 41
8 13 34 -9 34 -27z"/>
<path d="M1370 3391 c0 -5 9 -15 20 -22 19 -13 20 -16 5 -36 -15 -22 -17 -22
-40 -7 -21 14 -25 14 -25 2 0 -15 80 -78 99 -78 18 0 13 16 -9 31 -19 13 -20
15 -4 37 15 22 17 22 39 8 46 -30 35 4 -12 38 -47 35 -73 44 -73 27z"/>
<path d="M3578 3315 c-44 -30 -48 -53 -15 -91 l23 -27 42 24 c51 29 61 53 34
88 -26 35 -40 36 -84 6z m67 -27 c6 -16 1 -26 -16 -39 -31 -24 -46 -24 -59 0
-14 27 -13 28 18 45 37 21 50 20 57 -6z"/>
<path d="M1240 3178 c-13 -28 -15 -44 -8 -47 6 -2 15 4 20 13 8 14 14 13 58
-9 35 -18 50 -21 50 -12 0 7 -20 23 -44 34 -36 18 -43 26 -39 42 10 38 -18 22
-37 -21z"/>
<path d="M1164 2988 c-5 -17 0 -28 27 -50 35 -30 75 -45 87 -34 3 4 0 11 -7
15 -18 12 -5 48 22 63 21 11 21 11 2 19 -11 4 -43 8 -72 8 -45 1 -53 -2 -59
-21z m80 -20 c-9 -32 -12 -33 -34 -13 -24 21 -18 35 16 35 22 0 24 -3 18 -22z"/>
<path d="M2590 2913 c0 -4 -43 -203 -95 -444 -52 -240 -95 -439 -95 -443 0 -3
6 -6 14 -6 10 0 20 24 31 73 30 133 175 809 175 818 0 5 -7 9 -15 9 -8 0 -15
-3 -15 -7z"/>
<path d="M1120 2821 c0 -5 10 -12 23 -15 22 -6 22 -6 -5 -27 -16 -11 -28 -27
-28 -34 0 -13 12 -17 94 -31 30 -5 38 -4 34 7 -3 8 -13 15 -24 17 -10 1 -30 5
-44 8 l-25 6 29 25 c20 17 36 23 52 19 17 -5 24 -2 24 7 0 9 -17 17 -46 21
-63 8 -84 8 -84 -3z"/>
<path d="M2121 2596 c-107 -107 -122 -126 -112 -142 6 -11 62 -71 126 -134 91
-90 117 -112 127 -102 10 10 -13 38 -107 132 l-120 120 118 116 c102 101 126
134 99 134 -4 0 -63 -56 -131 -124z"/>
<path d="M2756 2713 c-4 -4 46 -60 111 -125 l118 -118 -117 -117 c-91 -92
-115 -121 -108 -133 8 -12 36 11 140 115 l130 130 -127 127 c-70 71 -130 128
-134 128 -3 0 -9 -3 -13 -7z"/>
<path d="M1111 2616 c-7 -8 -11 -32 -9 -53 l3 -38 54 -3 c37 -2 57 1 62 10 13
19 11 72 -3 86 -17 17 -93 15 -107 -2z m94 -46 c0 -22 -4 -25 -40 -25 -36 0
-40 3 -43 28 -3 27 -2 28 40 25 38 -3 43 -6 43 -28z"/>
<path d="M1165 2423 c-11 -2 -30 -6 -41 -8 -22 -5 -22 -13 -8 -82 8 -41 27
-26 20 16 -7 43 2 51 55 51 24 0 29 -4 29 -25 0 -14 -4 -25 -10 -25 -5 0 -10
-7 -10 -15 0 -19 14 -19 34 1 11 10 14 24 10 42 -12 49 -25 57 -79 45z"/>
<path d="M3745 2180 c-4 -6 -10 -24 -15 -41 -7 -25 -5 -32 16 -45 30 -20 49
-8 58 37 4 22 11 30 23 27 28 -5 29 -53 1 -72 -17 -12 -18 -16 -6 -16 19 0 33
17 41 49 8 31 -8 51 -38 51 -18 0 -26 -8 -35 -35 -13 -39 -50 -51 -50 -16 0
30 11 51 27 51 8 0 11 5 8 10 -8 13 -22 13 -30 0z"/>
<path d="M3681 1987 c-6 -8 -13 -27 -17 -43 -5 -28 -2 -30 52 -51 58 -23 89
-24 40 -2 -44 21 -33 45 28 60 l31 7 -30 1 c-19 1 -35 9 -43 21 -14 23 -44 26
-61 7z m44 -7 c4 -6 4 -24 0 -41 -6 -25 -10 -29 -28 -23 -29 9 -29 7 -16 42
11 32 32 42 44 22z"/>
<path d="M3591 1805 c-11 -20 -21 -40 -21 -45 0 -12 102 -70 112 -64 12 8 40
65 34 71 -2 3 -12 -9 -21 -26 -17 -33 -22 -36 -45 -21 -13 8 -13 13 2 40 9 16
13 30 8 30 -5 0 -15 -10 -21 -22 -16 -31 -15 -31 -38 -19 l-20 11 21 36 c11
19 18 37 15 40 -2 3 -14 -11 -26 -31z"/>
<path d="M3475 1639 c-14 -18 -22 -35 -18 -40 36 -33 97 -79 101 -75 3 3 -6
14 -19 25 l-24 19 23 31 c26 36 26 35 6 55 -23 23 -39 20 -69 -15z m63 -1 c2
-8 -6 -26 -17 -39 -19 -23 -21 -23 -37 -7 -17 17 -17 19 6 43 25 27 43 28 48
3z"/>
<path d="M3352 1507 c-30 -32 -28 -48 11 -85 40 -39 59 -40 86 -6 23 29 20 41
-24 87 -32 33 -45 34 -73 4z m71 -21 c32 -42 33 -47 7 -71 -20 -18 -21 -18
-55 15 -41 40 -43 52 -12 73 30 21 28 22 60 -17z"/>
<path d="M1737 1443 c-2 -5 -17 -30 -32 -57 l-29 -49 32 6 c29 6 32 4 32 -18
0 -36 14 -31 54 19 49 59 46 72 -4 16 -36 -40 -40 -42 -38 -20 3 21 -1 25 -19
23 -29 -3 -29 -1 2 47 14 22 21 40 16 40 -6 0 -12 -3 -14 -7z"/>
<path d="M3171 1367 c-1 -6 44 -79 65 -106 5 -6 74 40 74 50 0 6 -14 0 -31
-12 l-32 -22 -16 20 c-9 11 -26 33 -38 49 -12 16 -22 25 -22 21z"/>
<path d="M1880 1290 l-30 -60 41 -20 c22 -12 43 -19 46 -16 3 3 -11 13 -31 22
-39 19 -40 22 -27 43 8 12 14 12 40 1 18 -7 34 -10 37 -8 2 3 -9 11 -26 18
-31 13 -36 25 -21 48 7 12 14 11 41 -3 17 -9 34 -14 37 -11 3 2 -13 14 -36 25
l-41 21 -30 -60z"/>
<path d="M3033 1303 c-18 -9 -33 -20 -33 -24 0 -3 11 -32 25 -63 l25 -56 45
22 c26 13 42 24 36 26 -5 2 -24 -4 -41 -13 -35 -18 -35 -18 -44 11 -5 17 0 24
25 35 18 7 27 15 21 17 -6 2 -21 -2 -33 -9 -19 -10 -25 -9 -36 7 -12 16 -10
20 22 36 19 10 35 21 35 23 0 8 -13 5 -47 -12z"/>
<path d="M2057 1217 c-23 -72 -22 -74 18 -87 45 -15 65 -7 65 24 0 14 5 28 10
31 6 3 10 17 10 31 0 19 -8 28 -35 40 -19 7 -38 14 -43 14 -5 0 -16 -24 -25
-53z m74 23 c21 -12 25 -35 8 -45 -5 -4 -23 -2 -38 5 -21 8 -27 17 -24 31 6
21 24 24 54 9z m-23 -56 c20 -6 30 -33 16 -46 -5 -6 -62 7 -71 15 -2 2 -1 12
3 21 7 17 16 19 52 10z"/>
<path d="M2907 1193 c4 -43 2 -63 -7 -68 -16 -10 -53 33 -69 79 l-11 31 5 -33
c7 -48 41 -92 71 -92 20 0 24 5 26 33 3 50 -2 91 -12 101 -5 5 -6 -17 -3 -51z"/>
<path d="M2675 1201 c-44 -7 -43 -4 -30 -94 6 -44 9 -48 28 -43 12 3 32 6 45
6 12 0 22 3 22 8 0 4 -18 6 -41 4 -38 -4 -40 -3 -37 19 2 17 11 26 33 30 29 6
28 7 -8 8 -34 1 -38 4 -35 24 2 18 10 23 41 25 20 2 37 7 37 13 0 5 -3 8 -7 8
-5 -1 -26 -5 -48 -8z"/>
<path d="M2440 1125 l0 -66 48 3 47 3 0 60 0 60 -47 3 -48 3 0 -66z m85 0 l0
-50 -37 -3 c-37 -3 -38 -2 -38 30 0 64 9 79 44 76 30 -3 31 -4 31 -53z"/>
</g>
</svg>
